<?xml version="1.0" encoding="UTF-8" standalone="no"?>
<!DOCTYPE svg PUBLIC "-//W3C//DTD SVG 1.1//EN"
 "http://www.w3.org/Graphics/SVG/1.1/DTD/svg11.dtd">
<!-- Generated by graphviz version 2.40.1 (20161225.0304)
 -->
<!-- Title: UmlClassDiagram Pages: 1 -->
<svg width="1738pt" height="1258pt"
 viewBox="0.00 0.00 1738.17 1257.60" xmlns="http://www.w3.org/2000/svg" xmlns:xlink="http://www.w3.org/1999/xlink">
<g id="graph0" class="graph" transform="scale(1 1) rotate(0) translate(4 1253.6)">
<title>UmlClassDiagram</title>
<polygon fill="#ffffff" stroke="transparent" points="-4,4 -4,-1253.6 1734.166,-1253.6 1734.166,4 -4,4"/>
<!-- 0 -->
<g id="node1" class="node">
<title>0</title>
<polygon fill="#f2f2f2" stroke="#000000" points="1034.0558,-1065.5 1034.0558,-1190.3 1252.2004,-1190.3 1252.2004,-1065.5 1034.0558,-1065.5"/>
<text text-anchor="middle" x="1143.1281" y="-1173.7" font-family="Times,serif" font-size="14.00" fill="#000000">&lt;&lt;Abstract&gt;&gt;</text>
<text text-anchor="middle" x="1143.1281" y="-1156.9" font-family="Times,serif" font-size="14.00" fill="#000000">Context</text>
<polyline fill="none" stroke="#000000" points="1034.0558,-1148.7 1252.2004,-1148.7 "/>
<text text-anchor="middle" x="1143.1281" y="-1132.1" font-family="Times,serif" font-size="14.00" fill="#000000"> </text>
<polyline fill="none" stroke="#000000" points="1034.0558,-1123.9 1252.2004,-1123.9 "/>
<text text-anchor="start" x="1042.0558" y="-1107.3" font-family="Times,serif" font-size="14.00" fill="#000000">Internal:</text>
<text text-anchor="start" x="1042.0558" y="-1090.5" font-family="Times,serif" font-size="14.00" fill="#000000"> &#160;&#160;&#160;_msgSender(): (payable: address)</text>
<text text-anchor="start" x="1042.0558" y="-1073.7" font-family="Times,serif" font-size="14.00" fill="#000000"> &#160;&#160;&#160;_msgData(): bytes</text>
</g>
<!-- 1 -->
<g id="node2" class="node">
<title>1</title>
<polygon fill="#f2f2f2" stroke="#000000" points="1170.6911,-618.1 1170.6911,-826.9 1655.5651,-826.9 1655.5651,-618.1 1170.6911,-618.1"/>
<text text-anchor="middle" x="1413.1281" y="-810.3" font-family="Times,serif" font-size="14.00" fill="#000000">&lt;&lt;Abstract&gt;&gt;</text>
<text text-anchor="middle" x="1413.1281" y="-793.5" font-family="Times,serif" font-size="14.00" fill="#000000">Ownable</text>
<polyline fill="none" stroke="#000000" points="1170.6911,-785.3 1655.5651,-785.3 "/>
<text text-anchor="start" x="1178.6911" y="-768.7" font-family="Times,serif" font-size="14.00" fill="#000000">Private:</text>
<text text-anchor="start" x="1178.6911" y="-751.9" font-family="Times,serif" font-size="14.00" fill="#000000"> &#160;&#160;_owner: address</text>
<polyline fill="none" stroke="#000000" points="1170.6911,-743.7 1655.5651,-743.7 "/>
<text text-anchor="start" x="1178.6911" y="-727.1" font-family="Times,serif" font-size="14.00" fill="#000000">Public:</text>
<text text-anchor="start" x="1178.6911" y="-710.3" font-family="Times,serif" font-size="14.00" fill="#000000"> &#160;&#160;&#160;&lt;&lt;event&gt;&gt; OwnershipTransferred(previousOwner: address, newOwner: address)</text>
<text text-anchor="start" x="1178.6911" y="-693.5" font-family="Times,serif" font-size="14.00" fill="#000000"> &#160;&#160;&#160;&lt;&lt;modifier&gt;&gt; onlyOwner()</text>
<text text-anchor="start" x="1178.6911" y="-676.7" font-family="Times,serif" font-size="14.00" fill="#000000"> &#160;&#160;&#160;constructor()</text>
<text text-anchor="start" x="1178.6911" y="-659.9" font-family="Times,serif" font-size="14.00" fill="#000000"> &#160;&#160;&#160;owner(): address</text>
<text text-anchor="start" x="1178.6911" y="-643.1" font-family="Times,serif" font-size="14.00" fill="#000000"> &#160;&#160;&#160;renounceOwnership()</text>
<text text-anchor="start" x="1178.6911" y="-626.3" font-family="Times,serif" font-size="14.00" fill="#000000"> &#160;&#160;&#160;transferOwnership(newOwner: address)</text>
</g>
<!-- 1&#45;&gt;0 -->
<g id="edge1" class="edge">
<title>1&#45;&gt;0</title>
<path fill="none" stroke="#000000" d="M1343.5964,-826.9006C1299.6418,-892.8976 1243.47,-977.2385 1201.7753,-1039.8423"/>
<polygon fill="none" stroke="#000000" points="1192.7609,-1034.4353 1184.8704,-1065.2248 1210.2392,-1046.076 1192.7609,-1034.4353"/>
</g>
<!-- 2 -->
<g id="node3" class="node">
<title>2</title>
<polygon fill="#f2f2f2" stroke="#000000" points="1269.8282,-1006.7 1269.8282,-1249.1 1708.428,-1249.1 1708.428,-1006.7 1269.8282,-1006.7"/>
<text text-anchor="middle" x="1489.1281" y="-1232.5" font-family="Times,serif" font-size="14.00" fill="#000000">&lt;&lt;Interface&gt;&gt;</text>
<text text-anchor="middle" x="1489.1281" y="-1215.7" font-family="Times,serif" font-size="14.00" fill="#000000">IERC20</text>
<polyline fill="none" stroke="#000000" points="1269.8282,-1207.5 1708.428,-1207.5 "/>
<text text-anchor="middle" x="1489.1281" y="-1190.9" font-family="Times,serif" font-size="14.00" fill="#000000"> </text>
<polyline fill="none" stroke="#000000" points="1269.8282,-1182.7 1708.428,-1182.7 "/>
<text text-anchor="start" x="1277.8282" y="-1166.1" font-family="Times,serif" font-size="14.00" fill="#000000">External:</text>
<text text-anchor="start" x="1277.8282" y="-1149.3" font-family="Times,serif" font-size="14.00" fill="#000000"> &#160;&#160;&#160;&#160;totalSupply(): uint256</text>
<text text-anchor="start" x="1277.8282" y="-1132.5" font-family="Times,serif" font-size="14.00" fill="#000000"> &#160;&#160;&#160;&#160;balanceOf(account: address): uint256</text>
<text text-anchor="start" x="1277.8282" y="-1115.7" font-family="Times,serif" font-size="14.00" fill="#000000"> &#160;&#160;&#160;&#160;transfer(recipient: address, amount: uint256): bool</text>
<text text-anchor="start" x="1277.8282" y="-1098.9" font-family="Times,serif" font-size="14.00" fill="#000000"> &#160;&#160;&#160;&#160;allowance(owner: address, spender: address): uint256</text>
<text text-anchor="start" x="1277.8282" y="-1082.1" font-family="Times,serif" font-size="14.00" fill="#000000"> &#160;&#160;&#160;&#160;approve(spender: address, amount: uint256): bool</text>
<text text-anchor="start" x="1277.8282" y="-1065.3" font-family="Times,serif" font-size="14.00" fill="#000000"> &#160;&#160;&#160;&#160;transferFrom(sender: address, recipient: address, amount: uint256): bool</text>
<text text-anchor="start" x="1277.8282" y="-1048.5" font-family="Times,serif" font-size="14.00" fill="#000000">Public:</text>
<text text-anchor="start" x="1277.8282" y="-1031.7" font-family="Times,serif" font-size="14.00" fill="#000000"> &#160;&#160;&#160;&lt;&lt;event&gt;&gt; Transfer(from: address, to: address, value: uint256)</text>
<text text-anchor="start" x="1277.8282" y="-1014.9" font-family="Times,serif" font-size="14.00" fill="#000000"> &#160;&#160;&#160;&lt;&lt;event&gt;&gt; Approval(owner: address, spender: address, value: uint256)</text>
</g>
<!-- 3 -->
<g id="node4" class="node">
<title>3</title>
<polygon fill="#f2f2f2" stroke="#000000" points="44.4317,-1015.1 44.4317,-1240.7 401.8245,-1240.7 401.8245,-1015.1 44.4317,-1015.1"/>
<text text-anchor="middle" x="223.1281" y="-1224.1" font-family="Times,serif" font-size="14.00" fill="#000000">&lt;&lt;Library&gt;&gt;</text>
<text text-anchor="middle" x="223.1281" y="-1207.3" font-family="Times,serif" font-size="14.00" fill="#000000">SafeMath</text>
<polyline fill="none" stroke="#000000" points="44.4317,-1199.1 401.8245,-1199.1 "/>
<text text-anchor="middle" x="223.1281" y="-1182.5" font-family="Times,serif" font-size="14.00" fill="#000000"> </text>
<polyline fill="none" stroke="#000000" points="44.4317,-1174.3 401.8245,-1174.3 "/>
<text text-anchor="start" x="52.4317" y="-1157.7" font-family="Times,serif" font-size="14.00" fill="#000000">Internal:</text>
<text text-anchor="start" x="52.4317" y="-1140.9" font-family="Times,serif" font-size="14.00" fill="#000000"> &#160;&#160;&#160;add(a: uint256, b: uint256): uint256</text>
<text text-anchor="start" x="52.4317" y="-1124.1" font-family="Times,serif" font-size="14.00" fill="#000000"> &#160;&#160;&#160;sub(a: uint256, b: uint256): uint256</text>
<text text-anchor="start" x="52.4317" y="-1107.3" font-family="Times,serif" font-size="14.00" fill="#000000"> &#160;&#160;&#160;sub(a: uint256, b: uint256, errorMessage: string): uint256</text>
<text text-anchor="start" x="52.4317" y="-1090.5" font-family="Times,serif" font-size="14.00" fill="#000000"> &#160;&#160;&#160;mul(a: uint256, b: uint256): uint256</text>
<text text-anchor="start" x="52.4317" y="-1073.7" font-family="Times,serif" font-size="14.00" fill="#000000"> &#160;&#160;&#160;div(a: uint256, b: uint256): uint256</text>
<text text-anchor="start" x="52.4317" y="-1056.9" font-family="Times,serif" font-size="14.00" fill="#000000"> &#160;&#160;&#160;div(a: uint256, b: uint256, errorMessage: string): uint256</text>
<text text-anchor="start" x="52.4317" y="-1040.1" font-family="Times,serif" font-size="14.00" fill="#000000"> &#160;&#160;&#160;mod(a: uint256, b: uint256): uint256</text>
<text text-anchor="start" x="52.4317" y="-1023.3" font-family="Times,serif" font-size="14.00" fill="#000000"> &#160;&#160;&#160;mod(a: uint256, b: uint256, errorMessage: string): uint256</text>
</g>
<!-- 4 -->
<g id="node5" class="node">
<title>4</title>
<polygon fill="#f2f2f2" stroke="#000000" points="419.9109,-1015.1 419.9109,-1240.7 1016.3453,-1240.7 1016.3453,-1015.1 419.9109,-1015.1"/>
<text text-anchor="middle" x="718.1281" y="-1224.1" font-family="Times,serif" font-size="14.00" fill="#000000">&lt;&lt;Library&gt;&gt;</text>
<text text-anchor="middle" x="718.1281" y="-1207.3" font-family="Times,serif" font-size="14.00" fill="#000000">Address</text>
<polyline fill="none" stroke="#000000" points="419.9109,-1199.1 1016.3453,-1199.1 "/>
<text text-anchor="middle" x="718.1281" y="-1182.5" font-family="Times,serif" font-size="14.00" fill="#000000"> </text>
<polyline fill="none" stroke="#000000" points="419.9109,-1174.3 1016.3453,-1174.3 "/>
<text text-anchor="start" x="427.9109" y="-1157.7" font-family="Times,serif" font-size="14.00" fill="#000000">Private:</text>
<text text-anchor="start" x="427.9109" y="-1140.9" font-family="Times,serif" font-size="14.00" fill="#000000"> &#160;&#160;&#160;_functionCallWithValue(target: address, data: bytes, weiValue: uint256, errorMessage: string): bytes</text>
<text text-anchor="start" x="427.9109" y="-1124.1" font-family="Times,serif" font-size="14.00" fill="#000000">Internal:</text>
<text text-anchor="start" x="427.9109" y="-1107.3" font-family="Times,serif" font-size="14.00" fill="#000000"> &#160;&#160;&#160;isContract(account: address): bool</text>
<text text-anchor="start" x="427.9109" y="-1090.5" font-family="Times,serif" font-size="14.00" fill="#000000"> &#160;&#160;&#160;sendValue(recipient: address, amount: uint256)</text>
<text text-anchor="start" x="427.9109" y="-1073.7" font-family="Times,serif" font-size="14.00" fill="#000000"> &#160;&#160;&#160;functionCall(target: address, data: bytes): bytes</text>
<text text-anchor="start" x="427.9109" y="-1056.9" font-family="Times,serif" font-size="14.00" fill="#000000"> &#160;&#160;&#160;functionCall(target: address, data: bytes, errorMessage: string): bytes</text>
<text text-anchor="start" x="427.9109" y="-1040.1" font-family="Times,serif" font-size="14.00" fill="#000000"> &#160;&#160;&#160;functionCallWithValue(target: address, data: bytes, value: uint256): bytes</text>
<text text-anchor="start" x="427.9109" y="-1023.3" font-family="Times,serif" font-size="14.00" fill="#000000"> &#160;&#160;&#160;functionCallWithValue(target: address, data: bytes, value: uint256, errorMessage: string): bytes</text>
</g>
<!-- 5 -->
<g id="node6" class="node">
<title>5</title>
<polygon fill="#f2f2f2" stroke="#000000" points="679.5782,-475.3 679.5782,-969.7 1114.678,-969.7 1114.678,-475.3 679.5782,-475.3"/>
<text text-anchor="middle" x="897.1281" y="-953.1" font-family="Times,serif" font-size="14.00" fill="#000000">ERC20</text>
<polyline fill="none" stroke="#000000" points="679.5782,-944.9 1114.678,-944.9 "/>
<text text-anchor="start" x="687.5782" y="-928.3" font-family="Times,serif" font-size="14.00" fill="#000000">Private:</text>
<text text-anchor="start" x="687.5782" y="-911.5" font-family="Times,serif" font-size="14.00" fill="#000000"> &#160;&#160;_balances: mapping(address=&gt;uint256)</text>
<text text-anchor="start" x="687.5782" y="-894.7" font-family="Times,serif" font-size="14.00" fill="#000000"> &#160;&#160;_allowances: mapping(address=&gt;mapping(address=&gt;uint256))</text>
<text text-anchor="start" x="687.5782" y="-877.9" font-family="Times,serif" font-size="14.00" fill="#000000"> &#160;&#160;_totalSupply: uint256</text>
<text text-anchor="start" x="687.5782" y="-861.1" font-family="Times,serif" font-size="14.00" fill="#000000"> &#160;&#160;_name: string</text>
<text text-anchor="start" x="687.5782" y="-844.3" font-family="Times,serif" font-size="14.00" fill="#000000"> &#160;&#160;_symbol: string</text>
<text text-anchor="start" x="687.5782" y="-827.5" font-family="Times,serif" font-size="14.00" fill="#000000"> &#160;&#160;_decimals: uint8</text>
<polyline fill="none" stroke="#000000" points="679.5782,-819.3 1114.678,-819.3 "/>
<text text-anchor="start" x="687.5782" y="-802.7" font-family="Times,serif" font-size="14.00" fill="#000000">Internal:</text>
<text text-anchor="start" x="687.5782" y="-785.9" font-family="Times,serif" font-size="14.00" fill="#000000"> &#160;&#160;&#160;_transfer(sender: address, recipient: address, amount: uint256)</text>
<text text-anchor="start" x="687.5782" y="-769.1" font-family="Times,serif" font-size="14.00" fill="#000000"> &#160;&#160;&#160;_mint(account: address, amount: uint256)</text>
<text text-anchor="start" x="687.5782" y="-752.3" font-family="Times,serif" font-size="14.00" fill="#000000"> &#160;&#160;&#160;_burn(account: address, amount: uint256)</text>
<text text-anchor="start" x="687.5782" y="-735.5" font-family="Times,serif" font-size="14.00" fill="#000000"> &#160;&#160;&#160;_approve(owner: address, spender: address, amount: uint256)</text>
<text text-anchor="start" x="687.5782" y="-718.7" font-family="Times,serif" font-size="14.00" fill="#000000"> &#160;&#160;&#160;_setupDecimals(decimals_: uint8)</text>
<text text-anchor="start" x="687.5782" y="-701.9" font-family="Times,serif" font-size="14.00" fill="#000000"> &#160;&#160;&#160;_beforeTokenTransfer(from: address, to: address, amount: uint256)</text>
<text text-anchor="start" x="687.5782" y="-685.1" font-family="Times,serif" font-size="14.00" fill="#000000">Public:</text>
<text text-anchor="start" x="687.5782" y="-668.3" font-family="Times,serif" font-size="14.00" fill="#000000"> &#160;&#160;&#160;constructor(name_: string, symbol_: string)</text>
<text text-anchor="start" x="687.5782" y="-651.5" font-family="Times,serif" font-size="14.00" fill="#000000"> &#160;&#160;&#160;name(): string</text>
<text text-anchor="start" x="687.5782" y="-634.7" font-family="Times,serif" font-size="14.00" fill="#000000"> &#160;&#160;&#160;symbol(): string</text>
<text text-anchor="start" x="687.5782" y="-617.9" font-family="Times,serif" font-size="14.00" fill="#000000"> &#160;&#160;&#160;decimals(): uint8</text>
<text text-anchor="start" x="687.5782" y="-601.1" font-family="Times,serif" font-size="14.00" fill="#000000"> &#160;&#160;&#160;totalSupply(): uint256</text>
<text text-anchor="start" x="687.5782" y="-584.3" font-family="Times,serif" font-size="14.00" fill="#000000"> &#160;&#160;&#160;balanceOf(account: address): uint256</text>
<text text-anchor="start" x="687.5782" y="-567.5" font-family="Times,serif" font-size="14.00" fill="#000000"> &#160;&#160;&#160;transfer(recipient: address, amount: uint256): bool</text>
<text text-anchor="start" x="687.5782" y="-550.7" font-family="Times,serif" font-size="14.00" fill="#000000"> &#160;&#160;&#160;allowance(owner: address, spender: address): uint256</text>
<text text-anchor="start" x="687.5782" y="-533.9" font-family="Times,serif" font-size="14.00" fill="#000000"> &#160;&#160;&#160;approve(spender: address, amount: uint256): bool</text>
<text text-anchor="start" x="687.5782" y="-517.1" font-family="Times,serif" font-size="14.00" fill="#000000"> &#160;&#160;&#160;transferFrom(sender: address, recipient: address, amount: uint256): bool</text>
<text text-anchor="start" x="687.5782" y="-500.3" font-family="Times,serif" font-size="14.00" fill="#000000"> &#160;&#160;&#160;increaseAllowance(spender: address, addedValue: uint256): bool</text>
<text text-anchor="start" x="687.5782" y="-483.5" font-family="Times,serif" font-size="14.00" fill="#000000"> &#160;&#160;&#160;decreaseAllowance(spender: address, subtractedValue: uint256): bool</text>
</g>
<!-- 5&#45;&gt;0 -->
<g id="edge2" class="edge">
<title>5&#45;&gt;0</title>
<path fill="none" stroke="#000000" d="M1047.1374,-969.7105C1062.1273,-994.4134 1076.5542,-1018.1884 1089.4669,-1039.4681"/>
<polygon fill="none" stroke="#000000" points="1080.6748,-1045.2192 1105.2145,-1065.4196 1098.628,-1034.3251 1080.6748,-1045.2192"/>
</g>
<!-- 5&#45;&gt;2 -->
<g id="edge3" class="edge">
<title>5&#45;&gt;2</title>
<path fill="none" stroke="#000000" stroke-dasharray="5,2" d="M1114.8015,-937.987C1130.3208,-949.5393 1146.158,-960.4038 1162.1281,-970.2 1193.6186,-989.5165 1210.4302,-988.8895 1241.3744,-999.0504"/>
<polygon fill="none" stroke="#000000" points="1238.0058,-1009.0064 1269.7714,-1010.0991 1245.6204,-989.4356 1238.0058,-1009.0064"/>
</g>
<!-- 5&#45;&gt;3 -->
<g id="edge4" class="edge">
<title>5&#45;&gt;3</title>
<path fill="none" stroke="#000000" stroke-dasharray="5,2" d="M679.3281,-846.7756C595.0374,-895.6175 498.0897,-952.7107 411.1281,-1006.2 409.2109,-1007.3792 407.2843,-1008.5674 405.3497,-1009.7634"/>
<polygon fill="#000000" stroke="#000000" points="403.4725,-1006.8091 396.82,-1015.0551 407.1627,-1012.7574 403.4725,-1006.8091"/>
</g>
<!-- 5&#45;&gt;4 -->
<g id="edge5" class="edge">
<title>5&#45;&gt;4</title>
<path fill="none" stroke="#000000" stroke-dasharray="5,2" d="M787.975,-969.7105C782.5683,-981.9555 777.2623,-993.9726 772.1413,-1005.5708"/>
<polygon fill="#000000" stroke="#000000" points="768.913,-1004.2171 768.0755,-1014.7788 775.3166,-1007.0446 768.913,-1004.2171"/>
</g>
<!-- 6 -->
<g id="node7" class="node">
<title>6</title>
<polygon fill="#f2f2f2" stroke="#000000" points="0,-254.7 0,-429.9 408.2562,-429.9 408.2562,-254.7 0,-254.7"/>
<text text-anchor="middle" x="204.1281" y="-413.3" font-family="Times,serif" font-size="14.00" fill="#000000">&lt;&lt;Abstract&gt;&gt;</text>
<text text-anchor="middle" x="204.1281" y="-396.5" font-family="Times,serif" font-size="14.00" fill="#000000">ERC20Capped</text>
<polyline fill="none" stroke="#000000" points="0,-388.3 408.2562,-388.3 "/>
<text text-anchor="start" x="8" y="-371.7" font-family="Times,serif" font-size="14.00" fill="#000000">Private:</text>
<text text-anchor="start" x="8" y="-354.9" font-family="Times,serif" font-size="14.00" fill="#000000"> &#160;&#160;_cap: uint256</text>
<polyline fill="none" stroke="#000000" points="0,-346.7 408.2562,-346.7 "/>
<text text-anchor="start" x="8" y="-330.1" font-family="Times,serif" font-size="14.00" fill="#000000">Internal:</text>
<text text-anchor="start" x="8" y="-313.3" font-family="Times,serif" font-size="14.00" fill="#000000"> &#160;&#160;&#160;_beforeTokenTransfer(from: address, to: address, amount: uint256)</text>
<text text-anchor="start" x="8" y="-296.5" font-family="Times,serif" font-size="14.00" fill="#000000">Public:</text>
<text text-anchor="start" x="8" y="-279.7" font-family="Times,serif" font-size="14.00" fill="#000000"> &#160;&#160;&#160;constructor(cap_: uint256)</text>
<text text-anchor="start" x="8" y="-262.9" font-family="Times,serif" font-size="14.00" fill="#000000"> &#160;&#160;&#160;cap(): uint256</text>
</g>
<!-- 6&#45;&gt;3 -->
<g id="edge7" class="edge">
<title>6&#45;&gt;3</title>
<path fill="none" stroke="#000000" stroke-dasharray="5,2" d="M206.2523,-430.1316C209.6422,-570.2936 216.2856,-844.9795 220.1488,-1004.7146"/>
<polygon fill="#000000" stroke="#000000" points="216.6583,-1005.1548 220.3992,-1015.0672 223.6563,-1004.9854 216.6583,-1005.1548"/>
</g>
<!-- 6&#45;&gt;5 -->
<g id="edge6" class="edge">
<title>6&#45;&gt;5</title>
<path fill="none" stroke="#000000" d="M363.9864,-430.0029C449.6669,-477.0097 557.0492,-535.9228 652.9455,-588.5343"/>
<polygon fill="none" stroke="#000000" points="647.9815,-597.7873 679.3337,-603.0116 658.0825,-579.3761 647.9815,-597.7873"/>
</g>
<!-- 7 -->
<g id="node8" class="node">
<title>7</title>
<polygon fill="#f2f2f2" stroke="#000000" points="760.4345,-279.9 760.4345,-404.7 1047.8217,-404.7 1047.8217,-279.9 760.4345,-279.9"/>
<text text-anchor="middle" x="904.1281" y="-388.1" font-family="Times,serif" font-size="14.00" fill="#000000">&lt;&lt;Abstract&gt;&gt;</text>
<text text-anchor="middle" x="904.1281" y="-371.3" font-family="Times,serif" font-size="14.00" fill="#000000">ERC20Burnable</text>
<polyline fill="none" stroke="#000000" points="760.4345,-363.1 1047.8217,-363.1 "/>
<text text-anchor="middle" x="904.1281" y="-346.5" font-family="Times,serif" font-size="14.00" fill="#000000"> </text>
<polyline fill="none" stroke="#000000" points="760.4345,-338.3 1047.8217,-338.3 "/>
<text text-anchor="start" x="768.4345" y="-321.7" font-family="Times,serif" font-size="14.00" fill="#000000">Public:</text>
<text text-anchor="start" x="768.4345" y="-304.9" font-family="Times,serif" font-size="14.00" fill="#000000"> &#160;&#160;&#160;burn(amount: uint256)</text>
<text text-anchor="start" x="768.4345" y="-288.1" font-family="Times,serif" font-size="14.00" fill="#000000"> &#160;&#160;&#160;burnFrom(account: address, amount: uint256)</text>
</g>
<!-- 7&#45;&gt;0 -->
<g id="edge8" class="edge">
<title>7&#45;&gt;0</title>
<path fill="none" stroke="#000000" d="M1001.0404,-404.8438C1019.523,-416.3668 1038.8155,-428.1225 1057.1281,-438.8 1086.3307,-455.8271 1106.3608,-446.0417 1124.1281,-474.8 1152.7782,-521.1734 1149.1161,-866.1113 1145.5129,-1035.114"/>
<polygon fill="none" stroke="#000000" points="1135.0129,-1035.0013 1144.8314,-1065.2312 1156.0075,-1035.4765 1135.0129,-1035.0013"/>
</g>
<!-- 7&#45;&gt;3 -->
<g id="edge10" class="edge">
<title>7&#45;&gt;3</title>
<path fill="none" stroke="#000000" stroke-dasharray="5,2" d="M809.9009,-404.7017C790.7462,-416.538 770.5198,-428.4452 751.1281,-438.8 716.3768,-457.3566 700.4008,-449.5896 670.1281,-474.8 491.1371,-623.86 353.1841,-861.9053 280.4103,-1005.7129"/>
<polygon fill="#000000" stroke="#000000" points="277.0817,-1004.5412 275.7113,-1015.047 283.3341,-1007.6888 277.0817,-1004.5412"/>
</g>
<!-- 7&#45;&gt;5 -->
<g id="edge9" class="edge">
<title>7&#45;&gt;5</title>
<path fill="none" stroke="#000000" d="M902.9722,-405.0823C902.7471,-417.3095 902.498,-430.8372 902.2333,-445.2142"/>
<polygon fill="none" stroke="#000000" points="891.7341,-445.0789 901.68,-475.2672 912.7306,-445.4656 891.7341,-445.0789"/>
</g>
<!-- 8 -->
<g id="node9" class="node">
<title>8</title>
<polygon fill="#f2f2f2" stroke="#000000" points="1065.7557,-246.3 1065.7557,-438.3 1278.5005,-438.3 1278.5005,-246.3 1065.7557,-246.3"/>
<text text-anchor="middle" x="1172.1281" y="-421.7" font-family="Times,serif" font-size="14.00" fill="#000000">&lt;&lt;Abstract&gt;&gt;</text>
<text text-anchor="middle" x="1172.1281" y="-404.9" font-family="Times,serif" font-size="14.00" fill="#000000">ERC20Mintable</text>
<polyline fill="none" stroke="#000000" points="1065.7557,-396.7 1278.5005,-396.7 "/>
<text text-anchor="start" x="1073.7557" y="-380.1" font-family="Times,serif" font-size="14.00" fill="#000000">Private:</text>
<text text-anchor="start" x="1073.7557" y="-363.3" font-family="Times,serif" font-size="14.00" fill="#000000"> &#160;&#160;_mintingFinished: bool</text>
<polyline fill="none" stroke="#000000" points="1065.7557,-355.1 1278.5005,-355.1 "/>
<text text-anchor="start" x="1073.7557" y="-338.5" font-family="Times,serif" font-size="14.00" fill="#000000">Public:</text>
<text text-anchor="start" x="1073.7557" y="-321.7" font-family="Times,serif" font-size="14.00" fill="#000000"> &#160;&#160;&#160;&lt;&lt;event&gt;&gt; MintFinished()</text>
<text text-anchor="start" x="1073.7557" y="-304.9" font-family="Times,serif" font-size="14.00" fill="#000000"> &#160;&#160;&#160;&lt;&lt;modifier&gt;&gt; canMint()</text>
<text text-anchor="start" x="1073.7557" y="-288.1" font-family="Times,serif" font-size="14.00" fill="#000000"> &#160;&#160;&#160;mintingFinished(): bool</text>
<text text-anchor="start" x="1073.7557" y="-271.3" font-family="Times,serif" font-size="14.00" fill="#000000"> &#160;&#160;&#160;mint(to: address, value: uint256)</text>
<text text-anchor="start" x="1073.7557" y="-254.5" font-family="Times,serif" font-size="14.00" fill="#000000"> &#160;&#160;&#160;finishMinting()</text>
</g>
<!-- 8&#45;&gt;5 -->
<g id="edge11" class="edge">
<title>8&#45;&gt;5</title>
<path fill="none" stroke="#000000" d="M1102.3785,-438.732C1099.5721,-442.612 1096.7154,-446.5614 1093.8154,-450.5709"/>
<polygon fill="none" stroke="#000000" points="1085.2353,-444.5173 1076.161,-474.9789 1102.2508,-456.8247 1085.2353,-444.5173"/>
</g>
<!-- 9 -->
<g id="node10" class="node">
<title>9</title>
<polygon fill="#f2f2f2" stroke="#000000" points="1334.6168,-296.7 1334.6168,-387.9 1717.6394,-387.9 1717.6394,-296.7 1334.6168,-296.7"/>
<text text-anchor="middle" x="1526.1281" y="-371.3" font-family="Times,serif" font-size="14.00" fill="#000000">TokenRecover</text>
<polyline fill="none" stroke="#000000" points="1334.6168,-363.1 1717.6394,-363.1 "/>
<text text-anchor="middle" x="1526.1281" y="-346.5" font-family="Times,serif" font-size="14.00" fill="#000000"> </text>
<polyline fill="none" stroke="#000000" points="1334.6168,-338.3 1717.6394,-338.3 "/>
<text text-anchor="start" x="1342.6168" y="-321.7" font-family="Times,serif" font-size="14.00" fill="#000000">Public:</text>
<text text-anchor="start" x="1342.6168" y="-304.9" font-family="Times,serif" font-size="14.00" fill="#000000"> &#160;&#160;&#160;recoverERC20(tokenAddress: address, tokenAmount: uint256)</text>
</g>
<!-- 9&#45;&gt;1 -->
<g id="edge12" class="edge">
<title>9&#45;&gt;1</title>
<path fill="none" stroke="#000000" d="M1512.4977,-388.161C1497.7822,-437.6726 1473.6548,-518.8517 1452.8599,-588.8185"/>
<polygon fill="none" stroke="#000000" points="1442.671,-586.2446 1444.1889,-617.9927 1462.8007,-592.2274 1442.671,-586.2446"/>
</g>
<!-- 9&#45;&gt;2 -->
<g id="edge13" class="edge">
<title>9&#45;&gt;2</title>
<path fill="none" stroke="#000000" stroke-dasharray="5,2" d="M1593.791,-388.1224C1621.0544,-410.675 1649.4787,-440.4258 1664.1281,-474.8 1750.4498,-677.3508 1753.6414,-769.0393 1664.1281,-970.2 1659.844,-979.8275 1654.6496,-989.1145 1648.7715,-998.032"/>
<polygon fill="#000000" stroke="#000000" points="1645.7463,-996.2529 1642.9336,-1006.4676 1651.5023,-1000.2364 1645.7463,-996.2529"/>
</g>
<!-- 10 -->
<g id="node11" class="node">
<title>10</title>
<polygon fill="#f2f2f2" stroke="#000000" points="1324.891,-.5 1324.891,-209.3 1727.3652,-209.3 1727.3652,-.5 1324.891,-.5"/>
<text text-anchor="middle" x="1526.1281" y="-192.7" font-family="Times,serif" font-size="14.00" fill="#000000">ServiceReceiver</text>
<polyline fill="none" stroke="#000000" points="1324.891,-184.5 1727.3652,-184.5 "/>
<text text-anchor="start" x="1332.891" y="-167.9" font-family="Times,serif" font-size="14.00" fill="#000000">Private:</text>
<text text-anchor="start" x="1332.891" y="-151.1" font-family="Times,serif" font-size="14.00" fill="#000000"> &#160;&#160;_prices: mapping(bytes32=&gt;uint256)</text>
<polyline fill="none" stroke="#000000" points="1324.891,-142.9 1727.3652,-142.9 "/>
<text text-anchor="start" x="1332.891" y="-126.3" font-family="Times,serif" font-size="14.00" fill="#000000">Private:</text>
<text text-anchor="start" x="1332.891" y="-109.5" font-family="Times,serif" font-size="14.00" fill="#000000"> &#160;&#160;&#160;_toBytes32(serviceName: string): bytes32</text>
<text text-anchor="start" x="1332.891" y="-92.7" font-family="Times,serif" font-size="14.00" fill="#000000">Public:</text>
<text text-anchor="start" x="1332.891" y="-75.9" font-family="Times,serif" font-size="14.00" fill="#000000"> &#160;&#160;&#160;&lt;&lt;payable&gt;&gt; pay(serviceName: string)</text>
<text text-anchor="start" x="1332.891" y="-59.1" font-family="Times,serif" font-size="14.00" fill="#000000"> &#160;&#160;&#160;&lt;&lt;event&gt;&gt; Created(serviceName: string, serviceAddress: address)</text>
<text text-anchor="start" x="1332.891" y="-42.3" font-family="Times,serif" font-size="14.00" fill="#000000"> &#160;&#160;&#160;getPrice(serviceName: string): uint256</text>
<text text-anchor="start" x="1332.891" y="-25.5" font-family="Times,serif" font-size="14.00" fill="#000000"> &#160;&#160;&#160;setPrice(serviceName: string, amount: uint256)</text>
<text text-anchor="start" x="1332.891" y="-8.7" font-family="Times,serif" font-size="14.00" fill="#000000"> &#160;&#160;&#160;withdraw(amount: uint256)</text>
</g>
<!-- 10&#45;&gt;9 -->
<g id="edge14" class="edge">
<title>10&#45;&gt;9</title>
<path fill="none" stroke="#000000" d="M1526.1281,-209.3726C1526.1281,-228.54 1526.1281,-248.2096 1526.1281,-266.3431"/>
<polygon fill="none" stroke="#000000" points="1515.6282,-266.4197 1526.1281,-296.4198 1536.6282,-266.4198 1515.6282,-266.4197"/>
</g>
<!-- 11 -->
<g id="node12" class="node">
<title>11</title>
<polygon fill="#f2f2f2" stroke="#000000" points="426.088,-296.7 426.088,-387.9 742.1682,-387.9 742.1682,-296.7 426.088,-296.7"/>
<text text-anchor="middle" x="584.1281" y="-371.3" font-family="Times,serif" font-size="14.00" fill="#000000">ServicePayer</text>
<polyline fill="none" stroke="#000000" points="426.088,-363.1 742.1682,-363.1 "/>
<text text-anchor="middle" x="584.1281" y="-346.5" font-family="Times,serif" font-size="14.00" fill="#000000"> </text>
<polyline fill="none" stroke="#000000" points="426.088,-338.3 742.1682,-338.3 "/>
<text text-anchor="start" x="434.088" y="-321.7" font-family="Times,serif" font-size="14.00" fill="#000000">Public:</text>
<text text-anchor="start" x="434.088" y="-304.9" font-family="Times,serif" font-size="14.00" fill="#000000"> &#160;&#160;&#160;constructor(receiver: address, serviceName: string)</text>
</g>
<!-- 12 -->
<g id="node13" class="node">
<title>12</title>
<polygon fill="#f2f2f2" stroke="#000000" points="560.5978,-25.7 560.5978,-184.1 1247.6584,-184.1 1247.6584,-25.7 560.5978,-25.7"/>
<text text-anchor="middle" x="904.1281" y="-167.5" font-family="Times,serif" font-size="14.00" fill="#000000">CommonERC20</text>
<polyline fill="none" stroke="#000000" points="560.5978,-159.3 1247.6584,-159.3 "/>
<text text-anchor="middle" x="904.1281" y="-142.7" font-family="Times,serif" font-size="14.00" fill="#000000"> </text>
<polyline fill="none" stroke="#000000" points="560.5978,-134.5 1247.6584,-134.5 "/>
<text text-anchor="start" x="568.5978" y="-117.9" font-family="Times,serif" font-size="14.00" fill="#000000">Internal:</text>
<text text-anchor="start" x="568.5978" y="-101.1" font-family="Times,serif" font-size="14.00" fill="#000000"> &#160;&#160;&#160;_beforeTokenTransfer(from: address, to: address, amount: uint256)</text>
<text text-anchor="start" x="568.5978" y="-84.3" font-family="Times,serif" font-size="14.00" fill="#000000">Public:</text>
<text text-anchor="start" x="568.5978" y="-67.5" font-family="Times,serif" font-size="14.00" fill="#000000"> &#160;&#160;&#160;constructor(name: string, symbol: string, decimals: uint8, cap: uint256, initialBalance: uint256, feeReceiver: address)</text>
<text text-anchor="start" x="568.5978" y="-50.7" font-family="Times,serif" font-size="14.00" fill="#000000"> &#160;&#160;&#160;mint(to: address, value: uint256)</text>
<text text-anchor="start" x="568.5978" y="-33.9" font-family="Times,serif" font-size="14.00" fill="#000000"> &#160;&#160;&#160;finishMinting()</text>
</g>
<!-- 12&#45;&gt;1 -->
<g id="edge15" class="edge">
<title>12&#45;&gt;1</title>
<path fill="none" stroke="#000000" d="M1212.6923,-184.2861C1240.6202,-201.0189 1266.2047,-221.2762 1287.1281,-245.8 1343.8715,-312.3075 1303.7031,-354.0413 1325.1281,-438.8 1337.6312,-488.2631 1353.6134,-541.8663 1368.5182,-589.0222"/>
<polygon fill="none" stroke="#000000" points="1358.5943,-592.4618 1377.7407,-617.8324 1378.5946,-586.0594 1358.5943,-592.4618"/>
</g>
<!-- 12&#45;&gt;6 -->
<g id="edge16" class="edge">
<title>12&#45;&gt;6</title>
<path fill="none" stroke="#000000" d="M604.7824,-184.1513C549.5647,-200.577 492.3282,-218.8009 422.5056,-244.1552"/>
<polygon fill="none" stroke="#000000" points="418.538,-234.4268 394.0101,-254.6415 425.7906,-254.1347 418.538,-234.4268"/>
</g>
<!-- 12&#45;&gt;7 -->
<g id="edge18" class="edge">
<title>12&#45;&gt;7</title>
<path fill="none" stroke="#000000" d="M904.1281,-184.2808C904.1281,-205.2011 904.1281,-227.9583 904.1281,-249.5165"/>
<polygon fill="none" stroke="#000000" points="893.6282,-249.8901 904.1281,-279.8902 914.6282,-249.8902 893.6282,-249.8901"/>
</g>
<!-- 12&#45;&gt;8 -->
<g id="edge17" class="edge">
<title>12&#45;&gt;8</title>
<path fill="none" stroke="#000000" d="M993.7408,-184.2808C1009.5377,-198.274 1026.2623,-213.089 1042.8891,-227.8174"/>
<polygon fill="none" stroke="#000000" points="1035.9862,-235.7298 1065.405,-247.7624 1049.9109,-220.0102 1035.9862,-235.7298"/>
</g>
<!-- 12&#45;&gt;11 -->
<g id="edge19" class="edge">
<title>12&#45;&gt;11</title>
<path fill="none" stroke="#000000" d="M797.1278,-184.2808C755.7443,-214.9822 709.0279,-249.6399 669.9132,-278.6582"/>
<polygon fill="none" stroke="#000000" points="663.5827,-270.2806 645.7452,-296.5878 676.0949,-287.1461 663.5827,-270.2806"/>
</g>
</g>
</svg>
